<mxfile host="65bd71144e">
    <diagram name="Page-1" id="YdwG4cbzkO5ZW2OJGKdB">
        <mxGraphModel dx="746" dy="350" grid="1" gridSize="10" guides="1" tooltips="1" connect="1" arrows="1" fold="1" page="1" pageScale="1" pageWidth="827" pageHeight="1169" math="0" shadow="0">
            <root>
                <mxCell id="0"/>
                <mxCell id="1" parent="0"/>
                <mxCell id="FWlAzwUGBrvPfHqwhNHn-1" value="products" style="shape=table;startSize=30;container=1;collapsible=1;childLayout=tableLayout;fixedRows=1;rowLines=0;fontStyle=1;align=center;resizeLast=1;html=1;fillColor=#6d8764;strokeColor=#3A5431;fontColor=#ffffff;rounded=1;" parent="1" vertex="1">
                    <mxGeometry x="9" y="80" width="219" height="310" as="geometry"/>
                </mxCell>
                <mxCell id="FWlAzwUGBrvPfHqwhNHn-2" value="" style="shape=tableRow;horizontal=0;startSize=0;swimlaneHead=0;swimlaneBody=0;fillColor=none;collapsible=0;dropTarget=0;points=[[0,0.5],[1,0.5]];portConstraint=eastwest;top=0;left=0;right=0;bottom=1;rounded=1;" parent="FWlAzwUGBrvPfHqwhNHn-1" vertex="1">
                    <mxGeometry y="30" width="219" height="30" as="geometry"/>
                </mxCell>
                <mxCell id="FWlAzwUGBrvPfHqwhNHn-3" value="PK" style="shape=partialRectangle;connectable=0;fillColor=none;top=0;left=0;bottom=0;right=0;fontStyle=1;overflow=hidden;whiteSpace=wrap;html=1;rounded=1;" parent="FWlAzwUGBrvPfHqwhNHn-2" vertex="1">
                    <mxGeometry width="30" height="30" as="geometry">
                        <mxRectangle width="30" height="30" as="alternateBounds"/>
                    </mxGeometry>
                </mxCell>
                <mxCell id="FWlAzwUGBrvPfHqwhNHn-4" value="id&amp;nbsp; &amp;nbsp;INT&amp;nbsp; &amp;nbsp;AUTO" style="shape=partialRectangle;connectable=0;fillColor=none;top=0;left=0;bottom=0;right=0;align=left;spacingLeft=6;fontStyle=5;overflow=hidden;whiteSpace=wrap;html=1;rounded=1;" parent="FWlAzwUGBrvPfHqwhNHn-2" vertex="1">
                    <mxGeometry x="30" width="189" height="30" as="geometry">
                        <mxRectangle width="189" height="30" as="alternateBounds"/>
                    </mxGeometry>
                </mxCell>
                <mxCell id="FWlAzwUGBrvPfHqwhNHn-5" value="" style="shape=tableRow;horizontal=0;startSize=0;swimlaneHead=0;swimlaneBody=0;fillColor=none;collapsible=0;dropTarget=0;points=[[0,0.5],[1,0.5]];portConstraint=eastwest;top=0;left=0;right=0;bottom=0;rounded=1;" parent="FWlAzwUGBrvPfHqwhNHn-1" vertex="1">
                    <mxGeometry y="60" width="219" height="30" as="geometry"/>
                </mxCell>
                <mxCell id="FWlAzwUGBrvPfHqwhNHn-6" value="" style="shape=partialRectangle;connectable=0;fillColor=none;top=0;left=0;bottom=0;right=0;editable=1;overflow=hidden;whiteSpace=wrap;html=1;rounded=1;" parent="FWlAzwUGBrvPfHqwhNHn-5" vertex="1">
                    <mxGeometry width="30" height="30" as="geometry">
                        <mxRectangle width="30" height="30" as="alternateBounds"/>
                    </mxGeometry>
                </mxCell>
                <mxCell id="FWlAzwUGBrvPfHqwhNHn-7" value="name&amp;nbsp; &amp;nbsp;VARCHAR(50)" style="shape=partialRectangle;connectable=0;fillColor=none;top=0;left=0;bottom=0;right=0;align=left;spacingLeft=6;overflow=hidden;whiteSpace=wrap;html=1;rounded=1;" parent="FWlAzwUGBrvPfHqwhNHn-5" vertex="1">
                    <mxGeometry x="30" width="189" height="30" as="geometry">
                        <mxRectangle width="189" height="30" as="alternateBounds"/>
                    </mxGeometry>
                </mxCell>
                <mxCell id="FWlAzwUGBrvPfHqwhNHn-8" value="" style="shape=tableRow;horizontal=0;startSize=0;swimlaneHead=0;swimlaneBody=0;fillColor=none;collapsible=0;dropTarget=0;points=[[0,0.5],[1,0.5]];portConstraint=eastwest;top=0;left=0;right=0;bottom=0;rounded=1;" parent="FWlAzwUGBrvPfHqwhNHn-1" vertex="1">
                    <mxGeometry y="90" width="219" height="30" as="geometry"/>
                </mxCell>
                <mxCell id="FWlAzwUGBrvPfHqwhNHn-9" value="" style="shape=partialRectangle;connectable=0;fillColor=none;top=0;left=0;bottom=0;right=0;editable=1;overflow=hidden;whiteSpace=wrap;html=1;rounded=1;" parent="FWlAzwUGBrvPfHqwhNHn-8" vertex="1">
                    <mxGeometry width="30" height="30" as="geometry">
                        <mxRectangle width="30" height="30" as="alternateBounds"/>
                    </mxGeometry>
                </mxCell>
                <mxCell id="FWlAzwUGBrvPfHqwhNHn-10" value="description&amp;nbsp; &amp;nbsp; &amp;nbsp;TEXT" style="shape=partialRectangle;connectable=0;fillColor=none;top=0;left=0;bottom=0;right=0;align=left;spacingLeft=6;overflow=hidden;whiteSpace=wrap;html=1;rounded=1;" parent="FWlAzwUGBrvPfHqwhNHn-8" vertex="1">
                    <mxGeometry x="30" width="189" height="30" as="geometry">
                        <mxRectangle width="189" height="30" as="alternateBounds"/>
                    </mxGeometry>
                </mxCell>
                <mxCell id="FWlAzwUGBrvPfHqwhNHn-11" value="" style="shape=tableRow;horizontal=0;startSize=0;swimlaneHead=0;swimlaneBody=0;fillColor=none;collapsible=0;dropTarget=0;points=[[0,0.5],[1,0.5]];portConstraint=eastwest;top=0;left=0;right=0;bottom=0;rounded=1;" parent="FWlAzwUGBrvPfHqwhNHn-1" vertex="1">
                    <mxGeometry y="120" width="219" height="30" as="geometry"/>
                </mxCell>
                <mxCell id="FWlAzwUGBrvPfHqwhNHn-12" value="" style="shape=partialRectangle;connectable=0;fillColor=none;top=0;left=0;bottom=0;right=0;editable=1;overflow=hidden;whiteSpace=wrap;html=1;rounded=1;" parent="FWlAzwUGBrvPfHqwhNHn-11" vertex="1">
                    <mxGeometry width="30" height="30" as="geometry">
                        <mxRectangle width="30" height="30" as="alternateBounds"/>
                    </mxGeometry>
                </mxCell>
                <mxCell id="FWlAzwUGBrvPfHqwhNHn-13" value="images&amp;nbsp; &amp;nbsp; &amp;nbsp;VARCHAR(255)" style="shape=partialRectangle;connectable=0;fillColor=none;top=0;left=0;bottom=0;right=0;align=left;spacingLeft=6;overflow=hidden;whiteSpace=wrap;html=1;rounded=1;" parent="FWlAzwUGBrvPfHqwhNHn-11" vertex="1">
                    <mxGeometry x="30" width="189" height="30" as="geometry">
                        <mxRectangle width="189" height="30" as="alternateBounds"/>
                    </mxGeometry>
                </mxCell>
                <mxCell id="FWlAzwUGBrvPfHqwhNHn-17" value="" style="shape=tableRow;horizontal=0;startSize=0;swimlaneHead=0;swimlaneBody=0;fillColor=none;collapsible=0;dropTarget=0;points=[[0,0.5],[1,0.5]];portConstraint=eastwest;top=0;left=0;right=0;bottom=0;rounded=1;" parent="FWlAzwUGBrvPfHqwhNHn-1" vertex="1">
                    <mxGeometry y="150" width="219" height="30" as="geometry"/>
                </mxCell>
                <mxCell id="FWlAzwUGBrvPfHqwhNHn-18" value="" style="shape=partialRectangle;connectable=0;fillColor=none;top=0;left=0;bottom=0;right=0;editable=1;overflow=hidden;whiteSpace=wrap;html=1;rounded=1;" parent="FWlAzwUGBrvPfHqwhNHn-17" vertex="1">
                    <mxGeometry width="30" height="30" as="geometry">
                        <mxRectangle width="30" height="30" as="alternateBounds"/>
                    </mxGeometry>
                </mxCell>
                <mxCell id="FWlAzwUGBrvPfHqwhNHn-19" value="size&amp;nbsp; &amp;nbsp; &amp;nbsp; &amp;nbsp;DOUBLE" style="shape=partialRectangle;connectable=0;fillColor=none;top=0;left=0;bottom=0;right=0;align=left;spacingLeft=6;overflow=hidden;whiteSpace=wrap;html=1;rounded=1;" parent="FWlAzwUGBrvPfHqwhNHn-17" vertex="1">
                    <mxGeometry x="30" width="189" height="30" as="geometry">
                        <mxRectangle width="189" height="30" as="alternateBounds"/>
                    </mxGeometry>
                </mxCell>
                <mxCell id="FWlAzwUGBrvPfHqwhNHn-48" value="" style="shape=tableRow;horizontal=0;startSize=0;swimlaneHead=0;swimlaneBody=0;fillColor=none;collapsible=0;dropTarget=0;points=[[0,0.5],[1,0.5]];portConstraint=eastwest;top=0;left=0;right=0;bottom=0;rounded=1;" parent="FWlAzwUGBrvPfHqwhNHn-1" vertex="1">
                    <mxGeometry y="180" width="219" height="30" as="geometry"/>
                </mxCell>
                <mxCell id="FWlAzwUGBrvPfHqwhNHn-49" value="" style="shape=partialRectangle;connectable=0;fillColor=none;top=0;left=0;bottom=0;right=0;editable=1;overflow=hidden;whiteSpace=wrap;html=1;rounded=1;" parent="FWlAzwUGBrvPfHqwhNHn-48" vertex="1">
                    <mxGeometry width="30" height="30" as="geometry">
                        <mxRectangle width="30" height="30" as="alternateBounds"/>
                    </mxGeometry>
                </mxCell>
                <mxCell id="FWlAzwUGBrvPfHqwhNHn-50" value="price&amp;nbsp; &amp;nbsp; DOUBLE" style="shape=partialRectangle;connectable=0;fillColor=none;top=0;left=0;bottom=0;right=0;align=left;spacingLeft=6;overflow=hidden;whiteSpace=wrap;html=1;rounded=1;" parent="FWlAzwUGBrvPfHqwhNHn-48" vertex="1">
                    <mxGeometry x="30" width="189" height="30" as="geometry">
                        <mxRectangle width="189" height="30" as="alternateBounds"/>
                    </mxGeometry>
                </mxCell>
                <mxCell id="FWlAzwUGBrvPfHqwhNHn-130" value="" style="shape=tableRow;horizontal=0;startSize=0;swimlaneHead=0;swimlaneBody=0;fillColor=none;collapsible=0;dropTarget=0;points=[[0,0.5],[1,0.5]];portConstraint=eastwest;top=0;left=0;right=0;bottom=0;rounded=1;" parent="FWlAzwUGBrvPfHqwhNHn-1" vertex="1">
                    <mxGeometry y="210" width="219" height="30" as="geometry"/>
                </mxCell>
                <mxCell id="FWlAzwUGBrvPfHqwhNHn-131" value="" style="shape=partialRectangle;connectable=0;fillColor=none;top=0;left=0;bottom=0;right=0;editable=1;overflow=hidden;whiteSpace=wrap;html=1;rounded=1;" parent="FWlAzwUGBrvPfHqwhNHn-130" vertex="1">
                    <mxGeometry width="30" height="30" as="geometry">
                        <mxRectangle width="30" height="30" as="alternateBounds"/>
                    </mxGeometry>
                </mxCell>
                <mxCell id="FWlAzwUGBrvPfHqwhNHn-132" value="discount_percentage&amp;nbsp; &amp;nbsp; &amp;nbsp;INT" style="shape=partialRectangle;connectable=0;fillColor=none;top=0;left=0;bottom=0;right=0;align=left;spacingLeft=6;overflow=hidden;whiteSpace=wrap;html=1;rounded=1;" parent="FWlAzwUGBrvPfHqwhNHn-130" vertex="1">
                    <mxGeometry x="30" width="189" height="30" as="geometry">
                        <mxRectangle width="189" height="30" as="alternateBounds"/>
                    </mxGeometry>
                </mxCell>
                <mxCell id="FWlAzwUGBrvPfHqwhNHn-146" value="" style="shape=tableRow;horizontal=0;startSize=0;swimlaneHead=0;swimlaneBody=0;fillColor=none;collapsible=0;dropTarget=0;points=[[0,0.5],[1,0.5]];portConstraint=eastwest;top=0;left=0;right=0;bottom=0;rounded=1;" parent="FWlAzwUGBrvPfHqwhNHn-1" vertex="1">
                    <mxGeometry y="240" width="219" height="30" as="geometry"/>
                </mxCell>
                <mxCell id="FWlAzwUGBrvPfHqwhNHn-147" value="&lt;b&gt;FK&lt;/b&gt;" style="shape=partialRectangle;connectable=0;fillColor=none;top=0;left=0;bottom=0;right=0;editable=1;overflow=hidden;whiteSpace=wrap;html=1;rounded=1;" parent="FWlAzwUGBrvPfHqwhNHn-146" vertex="1">
                    <mxGeometry width="30" height="30" as="geometry">
                        <mxRectangle width="30" height="30" as="alternateBounds"/>
                    </mxGeometry>
                </mxCell>
                <mxCell id="FWlAzwUGBrvPfHqwhNHn-148" value="category_id&amp;nbsp; &amp;nbsp; INT" style="shape=partialRectangle;connectable=0;fillColor=none;top=0;left=0;bottom=0;right=0;align=left;spacingLeft=6;overflow=hidden;whiteSpace=wrap;html=1;rounded=1;" parent="FWlAzwUGBrvPfHqwhNHn-146" vertex="1">
                    <mxGeometry x="30" width="189" height="30" as="geometry">
                        <mxRectangle width="189" height="30" as="alternateBounds"/>
                    </mxGeometry>
                </mxCell>
                <mxCell id="FWlAzwUGBrvPfHqwhNHn-76" value="" style="shape=tableRow;horizontal=0;startSize=0;swimlaneHead=0;swimlaneBody=0;fillColor=none;collapsible=0;dropTarget=0;points=[[0,0.5],[1,0.5]];portConstraint=eastwest;top=0;left=0;right=0;bottom=0;rounded=1;" parent="FWlAzwUGBrvPfHqwhNHn-1" vertex="1">
                    <mxGeometry y="270" width="219" height="30" as="geometry"/>
                </mxCell>
                <mxCell id="FWlAzwUGBrvPfHqwhNHn-77" value="&lt;b&gt;FK&lt;/b&gt;" style="shape=partialRectangle;connectable=0;fillColor=none;top=0;left=0;bottom=0;right=0;editable=1;overflow=hidden;whiteSpace=wrap;html=1;rounded=1;" parent="FWlAzwUGBrvPfHqwhNHn-76" vertex="1">
                    <mxGeometry width="30" height="30" as="geometry">
                        <mxRectangle width="30" height="30" as="alternateBounds"/>
                    </mxGeometry>
                </mxCell>
                <mxCell id="FWlAzwUGBrvPfHqwhNHn-78" value="brands_id&amp;nbsp; &amp;nbsp;INT" style="shape=partialRectangle;connectable=0;fillColor=none;top=0;left=0;bottom=0;right=0;align=left;spacingLeft=6;overflow=hidden;whiteSpace=wrap;html=1;rounded=1;" parent="FWlAzwUGBrvPfHqwhNHn-76" vertex="1">
                    <mxGeometry x="30" width="189" height="30" as="geometry">
                        <mxRectangle width="189" height="30" as="alternateBounds"/>
                    </mxGeometry>
                </mxCell>
                <mxCell id="FWlAzwUGBrvPfHqwhNHn-23" value="users" style="shape=table;startSize=30;container=1;collapsible=1;childLayout=tableLayout;fixedRows=1;rowLines=0;fontStyle=1;align=center;resizeLast=1;html=1;fillColor=#6d8764;strokeColor=#3A5431;fontColor=#ffffff;rounded=1;" parent="1" vertex="1">
                    <mxGeometry x="580" y="80" width="200" height="240" as="geometry"/>
                </mxCell>
                <mxCell id="FWlAzwUGBrvPfHqwhNHn-24" value="" style="shape=tableRow;horizontal=0;startSize=0;swimlaneHead=0;swimlaneBody=0;fillColor=none;collapsible=0;dropTarget=0;points=[[0,0.5],[1,0.5]];portConstraint=eastwest;top=0;left=0;right=0;bottom=1;rounded=1;" parent="FWlAzwUGBrvPfHqwhNHn-23" vertex="1">
                    <mxGeometry y="30" width="200" height="30" as="geometry"/>
                </mxCell>
                <mxCell id="FWlAzwUGBrvPfHqwhNHn-25" value="PK" style="shape=partialRectangle;connectable=0;fillColor=none;top=0;left=0;bottom=0;right=0;fontStyle=1;overflow=hidden;whiteSpace=wrap;html=1;rounded=1;" parent="FWlAzwUGBrvPfHqwhNHn-24" vertex="1">
                    <mxGeometry width="30" height="30" as="geometry">
                        <mxRectangle width="30" height="30" as="alternateBounds"/>
                    </mxGeometry>
                </mxCell>
                <mxCell id="FWlAzwUGBrvPfHqwhNHn-26" value="id&amp;nbsp; &amp;nbsp;INT&amp;nbsp; &amp;nbsp;AUTO" style="shape=partialRectangle;connectable=0;fillColor=none;top=0;left=0;bottom=0;right=0;align=left;spacingLeft=6;fontStyle=5;overflow=hidden;whiteSpace=wrap;html=1;rounded=1;" parent="FWlAzwUGBrvPfHqwhNHn-24" vertex="1">
                    <mxGeometry x="30" width="170" height="30" as="geometry">
                        <mxRectangle width="170" height="30" as="alternateBounds"/>
                    </mxGeometry>
                </mxCell>
                <mxCell id="FWlAzwUGBrvPfHqwhNHn-27" value="" style="shape=tableRow;horizontal=0;startSize=0;swimlaneHead=0;swimlaneBody=0;fillColor=none;collapsible=0;dropTarget=0;points=[[0,0.5],[1,0.5]];portConstraint=eastwest;top=0;left=0;right=0;bottom=0;rounded=1;" parent="FWlAzwUGBrvPfHqwhNHn-23" vertex="1">
                    <mxGeometry y="60" width="200" height="30" as="geometry"/>
                </mxCell>
                <mxCell id="FWlAzwUGBrvPfHqwhNHn-28" value="" style="shape=partialRectangle;connectable=0;fillColor=none;top=0;left=0;bottom=0;right=0;editable=1;overflow=hidden;whiteSpace=wrap;html=1;rounded=1;" parent="FWlAzwUGBrvPfHqwhNHn-27" vertex="1">
                    <mxGeometry width="30" height="30" as="geometry">
                        <mxRectangle width="30" height="30" as="alternateBounds"/>
                    </mxGeometry>
                </mxCell>
                <mxCell id="FWlAzwUGBrvPfHqwhNHn-29" value="name&amp;nbsp; &amp;nbsp;VARCHAR(50)" style="shape=partialRectangle;connectable=0;fillColor=none;top=0;left=0;bottom=0;right=0;align=left;spacingLeft=6;overflow=hidden;whiteSpace=wrap;html=1;rounded=1;" parent="FWlAzwUGBrvPfHqwhNHn-27" vertex="1">
                    <mxGeometry x="30" width="170" height="30" as="geometry">
                        <mxRectangle width="170" height="30" as="alternateBounds"/>
                    </mxGeometry>
                </mxCell>
                <mxCell id="FWlAzwUGBrvPfHqwhNHn-30" value="" style="shape=tableRow;horizontal=0;startSize=0;swimlaneHead=0;swimlaneBody=0;fillColor=none;collapsible=0;dropTarget=0;points=[[0,0.5],[1,0.5]];portConstraint=eastwest;top=0;left=0;right=0;bottom=0;rounded=1;" parent="FWlAzwUGBrvPfHqwhNHn-23" vertex="1">
                    <mxGeometry y="90" width="200" height="30" as="geometry"/>
                </mxCell>
                <mxCell id="FWlAzwUGBrvPfHqwhNHn-31" value="" style="shape=partialRectangle;connectable=0;fillColor=none;top=0;left=0;bottom=0;right=0;editable=1;overflow=hidden;whiteSpace=wrap;html=1;rounded=1;" parent="FWlAzwUGBrvPfHqwhNHn-30" vertex="1">
                    <mxGeometry width="30" height="30" as="geometry">
                        <mxRectangle width="30" height="30" as="alternateBounds"/>
                    </mxGeometry>
                </mxCell>
                <mxCell id="FWlAzwUGBrvPfHqwhNHn-32" value="last_name&amp;nbsp; &amp;nbsp;VARCHAR(50)" style="shape=partialRectangle;connectable=0;fillColor=none;top=0;left=0;bottom=0;right=0;align=left;spacingLeft=6;overflow=hidden;whiteSpace=wrap;html=1;rounded=1;" parent="FWlAzwUGBrvPfHqwhNHn-30" vertex="1">
                    <mxGeometry x="30" width="170" height="30" as="geometry">
                        <mxRectangle width="170" height="30" as="alternateBounds"/>
                    </mxGeometry>
                </mxCell>
                <mxCell id="FWlAzwUGBrvPfHqwhNHn-33" value="" style="shape=tableRow;horizontal=0;startSize=0;swimlaneHead=0;swimlaneBody=0;fillColor=none;collapsible=0;dropTarget=0;points=[[0,0.5],[1,0.5]];portConstraint=eastwest;top=0;left=0;right=0;bottom=0;rounded=1;" parent="FWlAzwUGBrvPfHqwhNHn-23" vertex="1">
                    <mxGeometry y="120" width="200" height="30" as="geometry"/>
                </mxCell>
                <mxCell id="FWlAzwUGBrvPfHqwhNHn-34" value="" style="shape=partialRectangle;connectable=0;fillColor=none;top=0;left=0;bottom=0;right=0;editable=1;overflow=hidden;whiteSpace=wrap;html=1;rounded=1;" parent="FWlAzwUGBrvPfHqwhNHn-33" vertex="1">
                    <mxGeometry width="30" height="30" as="geometry">
                        <mxRectangle width="30" height="30" as="alternateBounds"/>
                    </mxGeometry>
                </mxCell>
                <mxCell id="FWlAzwUGBrvPfHqwhNHn-35" value="email&amp;nbsp; &amp;nbsp; &amp;nbsp; &amp;nbsp; &amp;nbsp;VARCHAR(50)" style="shape=partialRectangle;connectable=0;fillColor=none;top=0;left=0;bottom=0;right=0;align=left;spacingLeft=6;overflow=hidden;whiteSpace=wrap;html=1;rounded=1;" parent="FWlAzwUGBrvPfHqwhNHn-33" vertex="1">
                    <mxGeometry x="30" width="170" height="30" as="geometry">
                        <mxRectangle width="170" height="30" as="alternateBounds"/>
                    </mxGeometry>
                </mxCell>
                <mxCell id="FWlAzwUGBrvPfHqwhNHn-36" value="" style="shape=tableRow;horizontal=0;startSize=0;swimlaneHead=0;swimlaneBody=0;fillColor=none;collapsible=0;dropTarget=0;points=[[0,0.5],[1,0.5]];portConstraint=eastwest;top=0;left=0;right=0;bottom=0;rounded=1;" parent="FWlAzwUGBrvPfHqwhNHn-23" vertex="1">
                    <mxGeometry y="150" width="200" height="30" as="geometry"/>
                </mxCell>
                <mxCell id="FWlAzwUGBrvPfHqwhNHn-37" value="" style="shape=partialRectangle;connectable=0;fillColor=none;top=0;left=0;bottom=0;right=0;editable=1;overflow=hidden;whiteSpace=wrap;html=1;rounded=1;" parent="FWlAzwUGBrvPfHqwhNHn-36" vertex="1">
                    <mxGeometry width="30" height="30" as="geometry">
                        <mxRectangle width="30" height="30" as="alternateBounds"/>
                    </mxGeometry>
                </mxCell>
                <mxCell id="FWlAzwUGBrvPfHqwhNHn-38" value="password&amp;nbsp; &amp;nbsp; &amp;nbsp; &amp;nbsp;VARCHAR(50)" style="shape=partialRectangle;connectable=0;fillColor=none;top=0;left=0;bottom=0;right=0;align=left;spacingLeft=6;overflow=hidden;whiteSpace=wrap;html=1;rounded=1;" parent="FWlAzwUGBrvPfHqwhNHn-36" vertex="1">
                    <mxGeometry x="30" width="170" height="30" as="geometry">
                        <mxRectangle width="170" height="30" as="alternateBounds"/>
                    </mxGeometry>
                </mxCell>
                <mxCell id="FWlAzwUGBrvPfHqwhNHn-42" value="" style="shape=tableRow;horizontal=0;startSize=0;swimlaneHead=0;swimlaneBody=0;fillColor=none;collapsible=0;dropTarget=0;points=[[0,0.5],[1,0.5]];portConstraint=eastwest;top=0;left=0;right=0;bottom=0;rounded=1;" parent="FWlAzwUGBrvPfHqwhNHn-23" vertex="1">
                    <mxGeometry y="180" width="200" height="30" as="geometry"/>
                </mxCell>
                <mxCell id="FWlAzwUGBrvPfHqwhNHn-43" value="" style="shape=partialRectangle;connectable=0;fillColor=none;top=0;left=0;bottom=0;right=0;editable=1;overflow=hidden;whiteSpace=wrap;html=1;rounded=1;" parent="FWlAzwUGBrvPfHqwhNHn-42" vertex="1">
                    <mxGeometry width="30" height="30" as="geometry">
                        <mxRectangle width="30" height="30" as="alternateBounds"/>
                    </mxGeometry>
                </mxCell>
                <mxCell id="FWlAzwUGBrvPfHqwhNHn-44" value="avatar&amp;nbsp; &amp;nbsp; &amp;nbsp; &amp;nbsp; &amp;nbsp; &amp;nbsp;VARCHAR(255)" style="shape=partialRectangle;connectable=0;fillColor=none;top=0;left=0;bottom=0;right=0;align=left;spacingLeft=6;overflow=hidden;whiteSpace=wrap;html=1;rounded=1;" parent="FWlAzwUGBrvPfHqwhNHn-42" vertex="1">
                    <mxGeometry x="30" width="170" height="30" as="geometry">
                        <mxRectangle width="170" height="30" as="alternateBounds"/>
                    </mxGeometry>
                </mxCell>
                <mxCell id="FWlAzwUGBrvPfHqwhNHn-157" value="" style="shape=tableRow;horizontal=0;startSize=0;swimlaneHead=0;swimlaneBody=0;fillColor=none;collapsible=0;dropTarget=0;points=[[0,0.5],[1,0.5]];portConstraint=eastwest;top=0;left=0;right=0;bottom=0;rounded=1;" parent="FWlAzwUGBrvPfHqwhNHn-23" vertex="1">
                    <mxGeometry y="210" width="200" height="30" as="geometry"/>
                </mxCell>
                <mxCell id="FWlAzwUGBrvPfHqwhNHn-158" value="&lt;b&gt;FK&lt;/b&gt;" style="shape=partialRectangle;connectable=0;fillColor=none;top=0;left=0;bottom=0;right=0;editable=1;overflow=hidden;whiteSpace=wrap;html=1;rounded=1;" parent="FWlAzwUGBrvPfHqwhNHn-157" vertex="1">
                    <mxGeometry width="30" height="30" as="geometry">
                        <mxRectangle width="30" height="30" as="alternateBounds"/>
                    </mxGeometry>
                </mxCell>
                <mxCell id="FWlAzwUGBrvPfHqwhNHn-159" value="users_types_id&amp;nbsp; &amp;nbsp; &amp;nbsp; INT" style="shape=partialRectangle;connectable=0;fillColor=none;top=0;left=0;bottom=0;right=0;align=left;spacingLeft=6;overflow=hidden;whiteSpace=wrap;html=1;rounded=1;" parent="FWlAzwUGBrvPfHqwhNHn-157" vertex="1">
                    <mxGeometry x="30" width="170" height="30" as="geometry">
                        <mxRectangle width="170" height="30" as="alternateBounds"/>
                    </mxGeometry>
                </mxCell>
                <mxCell id="FWlAzwUGBrvPfHqwhNHn-51" value="users-products" style="shape=table;startSize=30;container=1;collapsible=1;childLayout=tableLayout;fixedRows=1;rowLines=0;fontStyle=1;align=center;resizeLast=1;html=1;fillColor=#6d8764;strokeColor=#3A5431;fontColor=#ffffff;rounded=1;" parent="1" vertex="1">
                    <mxGeometry x="324" y="80" width="180" height="120" as="geometry">
                        <mxRectangle x="340" y="80" width="130" height="30" as="alternateBounds"/>
                    </mxGeometry>
                </mxCell>
                <mxCell id="FWlAzwUGBrvPfHqwhNHn-52" value="" style="shape=tableRow;horizontal=0;startSize=0;swimlaneHead=0;swimlaneBody=0;fillColor=none;collapsible=0;dropTarget=0;points=[[0,0.5],[1,0.5]];portConstraint=eastwest;top=0;left=0;right=0;bottom=1;rounded=1;" parent="FWlAzwUGBrvPfHqwhNHn-51" vertex="1">
                    <mxGeometry y="30" width="180" height="30" as="geometry"/>
                </mxCell>
                <mxCell id="FWlAzwUGBrvPfHqwhNHn-53" value="PK" style="shape=partialRectangle;connectable=0;fillColor=none;top=0;left=0;bottom=0;right=0;fontStyle=1;overflow=hidden;whiteSpace=wrap;html=1;rounded=1;" parent="FWlAzwUGBrvPfHqwhNHn-52" vertex="1">
                    <mxGeometry width="30" height="30" as="geometry">
                        <mxRectangle width="30" height="30" as="alternateBounds"/>
                    </mxGeometry>
                </mxCell>
                <mxCell id="FWlAzwUGBrvPfHqwhNHn-54" value="id&amp;nbsp; &amp;nbsp;INT&amp;nbsp; AUTO" style="shape=partialRectangle;connectable=0;fillColor=none;top=0;left=0;bottom=0;right=0;align=left;spacingLeft=6;fontStyle=5;overflow=hidden;whiteSpace=wrap;html=1;rounded=1;" parent="FWlAzwUGBrvPfHqwhNHn-52" vertex="1">
                    <mxGeometry x="30" width="150" height="30" as="geometry">
                        <mxRectangle width="150" height="30" as="alternateBounds"/>
                    </mxGeometry>
                </mxCell>
                <mxCell id="FWlAzwUGBrvPfHqwhNHn-55" value="" style="shape=tableRow;horizontal=0;startSize=0;swimlaneHead=0;swimlaneBody=0;fillColor=none;collapsible=0;dropTarget=0;points=[[0,0.5],[1,0.5]];portConstraint=eastwest;top=0;left=0;right=0;bottom=0;rounded=1;" parent="FWlAzwUGBrvPfHqwhNHn-51" vertex="1">
                    <mxGeometry y="60" width="180" height="30" as="geometry"/>
                </mxCell>
                <mxCell id="FWlAzwUGBrvPfHqwhNHn-56" value="&lt;b&gt;FK&lt;/b&gt;" style="shape=partialRectangle;connectable=0;fillColor=none;top=0;left=0;bottom=0;right=0;editable=1;overflow=hidden;whiteSpace=wrap;html=1;rounded=1;" parent="FWlAzwUGBrvPfHqwhNHn-55" vertex="1">
                    <mxGeometry width="30" height="30" as="geometry">
                        <mxRectangle width="30" height="30" as="alternateBounds"/>
                    </mxGeometry>
                </mxCell>
                <mxCell id="FWlAzwUGBrvPfHqwhNHn-57" value="user_id&amp;nbsp; &amp;nbsp; INT" style="shape=partialRectangle;connectable=0;fillColor=none;top=0;left=0;bottom=0;right=0;align=left;spacingLeft=6;overflow=hidden;whiteSpace=wrap;html=1;rounded=1;" parent="FWlAzwUGBrvPfHqwhNHn-55" vertex="1">
                    <mxGeometry x="30" width="150" height="30" as="geometry">
                        <mxRectangle width="150" height="30" as="alternateBounds"/>
                    </mxGeometry>
                </mxCell>
                <mxCell id="FWlAzwUGBrvPfHqwhNHn-58" value="" style="shape=tableRow;horizontal=0;startSize=0;swimlaneHead=0;swimlaneBody=0;fillColor=none;collapsible=0;dropTarget=0;points=[[0,0.5],[1,0.5]];portConstraint=eastwest;top=0;left=0;right=0;bottom=0;rounded=1;" parent="FWlAzwUGBrvPfHqwhNHn-51" vertex="1">
                    <mxGeometry y="90" width="180" height="30" as="geometry"/>
                </mxCell>
                <mxCell id="FWlAzwUGBrvPfHqwhNHn-59" value="&lt;b&gt;FK&lt;/b&gt;" style="shape=partialRectangle;connectable=0;fillColor=none;top=0;left=0;bottom=0;right=0;editable=1;overflow=hidden;whiteSpace=wrap;html=1;rounded=1;" parent="FWlAzwUGBrvPfHqwhNHn-58" vertex="1">
                    <mxGeometry width="30" height="30" as="geometry">
                        <mxRectangle width="30" height="30" as="alternateBounds"/>
                    </mxGeometry>
                </mxCell>
                <mxCell id="FWlAzwUGBrvPfHqwhNHn-60" value="product_id&amp;nbsp; &amp;nbsp; &amp;nbsp; INT" style="shape=partialRectangle;connectable=0;fillColor=none;top=0;left=0;bottom=0;right=0;align=left;spacingLeft=6;overflow=hidden;whiteSpace=wrap;html=1;rounded=1;" parent="FWlAzwUGBrvPfHqwhNHn-58" vertex="1">
                    <mxGeometry x="30" width="150" height="30" as="geometry">
                        <mxRectangle width="150" height="30" as="alternateBounds"/>
                    </mxGeometry>
                </mxCell>
                <mxCell id="FWlAzwUGBrvPfHqwhNHn-79" value="" style="edgeStyle=entityRelationEdgeStyle;fontSize=12;html=1;endArrow=ERoneToMany;rounded=1;entryX=0;entryY=0.5;entryDx=0;entryDy=0;exitX=1;exitY=0.5;exitDx=0;exitDy=0;" parent="1" source="FWlAzwUGBrvPfHqwhNHn-5" target="FWlAzwUGBrvPfHqwhNHn-55" edge="1">
                    <mxGeometry width="100" height="100" relative="1" as="geometry">
                        <mxPoint x="230" y="170" as="sourcePoint"/>
                        <mxPoint x="324" y="140" as="targetPoint"/>
                    </mxGeometry>
                </mxCell>
                <mxCell id="FWlAzwUGBrvPfHqwhNHn-108" value="categories" style="shape=table;startSize=30;container=1;collapsible=1;childLayout=tableLayout;fixedRows=1;rowLines=0;fontStyle=1;align=center;resizeLast=1;html=1;fillColor=#6d8764;strokeColor=#3A5431;fontColor=#ffffff;rounded=1;" parent="1" vertex="1">
                    <mxGeometry x="200" y="460" width="200" height="90" as="geometry"/>
                </mxCell>
                <mxCell id="FWlAzwUGBrvPfHqwhNHn-109" value="" style="shape=tableRow;horizontal=0;startSize=0;swimlaneHead=0;swimlaneBody=0;fillColor=none;collapsible=0;dropTarget=0;points=[[0,0.5],[1,0.5]];portConstraint=eastwest;top=0;left=0;right=0;bottom=1;rounded=1;" parent="FWlAzwUGBrvPfHqwhNHn-108" vertex="1">
                    <mxGeometry y="30" width="200" height="30" as="geometry"/>
                </mxCell>
                <mxCell id="FWlAzwUGBrvPfHqwhNHn-110" value="PK" style="shape=partialRectangle;connectable=0;fillColor=none;top=0;left=0;bottom=0;right=0;fontStyle=1;overflow=hidden;whiteSpace=wrap;html=1;rounded=1;" parent="FWlAzwUGBrvPfHqwhNHn-109" vertex="1">
                    <mxGeometry width="30" height="30" as="geometry">
                        <mxRectangle width="30" height="30" as="alternateBounds"/>
                    </mxGeometry>
                </mxCell>
                <mxCell id="FWlAzwUGBrvPfHqwhNHn-111" value="id&amp;nbsp; &amp;nbsp;INT&amp;nbsp; &amp;nbsp;AUTO" style="shape=partialRectangle;connectable=0;fillColor=none;top=0;left=0;bottom=0;right=0;align=left;spacingLeft=6;fontStyle=5;overflow=hidden;whiteSpace=wrap;html=1;rounded=1;" parent="FWlAzwUGBrvPfHqwhNHn-109" vertex="1">
                    <mxGeometry x="30" width="170" height="30" as="geometry">
                        <mxRectangle width="170" height="30" as="alternateBounds"/>
                    </mxGeometry>
                </mxCell>
                <mxCell id="FWlAzwUGBrvPfHqwhNHn-112" value="" style="shape=tableRow;horizontal=0;startSize=0;swimlaneHead=0;swimlaneBody=0;fillColor=none;collapsible=0;dropTarget=0;points=[[0,0.5],[1,0.5]];portConstraint=eastwest;top=0;left=0;right=0;bottom=0;rounded=1;" parent="FWlAzwUGBrvPfHqwhNHn-108" vertex="1">
                    <mxGeometry y="60" width="200" height="30" as="geometry"/>
                </mxCell>
                <mxCell id="FWlAzwUGBrvPfHqwhNHn-113" value="" style="shape=partialRectangle;connectable=0;fillColor=none;top=0;left=0;bottom=0;right=0;editable=1;overflow=hidden;whiteSpace=wrap;html=1;rounded=1;" parent="FWlAzwUGBrvPfHqwhNHn-112" vertex="1">
                    <mxGeometry width="30" height="30" as="geometry">
                        <mxRectangle width="30" height="30" as="alternateBounds"/>
                    </mxGeometry>
                </mxCell>
                <mxCell id="FWlAzwUGBrvPfHqwhNHn-114" value="name&amp;nbsp; &amp;nbsp;VARCHAR(50)" style="shape=partialRectangle;connectable=0;fillColor=none;top=0;left=0;bottom=0;right=0;align=left;spacingLeft=6;overflow=hidden;whiteSpace=wrap;html=1;rounded=1;" parent="FWlAzwUGBrvPfHqwhNHn-112" vertex="1">
                    <mxGeometry x="30" width="170" height="30" as="geometry">
                        <mxRectangle width="170" height="30" as="alternateBounds"/>
                    </mxGeometry>
                </mxCell>
                <mxCell id="FWlAzwUGBrvPfHqwhNHn-133" value="brands" style="shape=table;startSize=30;container=1;collapsible=1;childLayout=tableLayout;fixedRows=1;rowLines=0;fontStyle=1;align=center;resizeLast=1;html=1;fillColor=#6d8764;strokeColor=#3A5431;fontColor=#ffffff;rounded=1;" parent="1" vertex="1">
                    <mxGeometry x="480" y="410" width="200" height="90" as="geometry"/>
                </mxCell>
                <mxCell id="FWlAzwUGBrvPfHqwhNHn-134" value="" style="shape=tableRow;horizontal=0;startSize=0;swimlaneHead=0;swimlaneBody=0;fillColor=none;collapsible=0;dropTarget=0;points=[[0,0.5],[1,0.5]];portConstraint=eastwest;top=0;left=0;right=0;bottom=1;rounded=1;" parent="FWlAzwUGBrvPfHqwhNHn-133" vertex="1">
                    <mxGeometry y="30" width="200" height="30" as="geometry"/>
                </mxCell>
                <mxCell id="FWlAzwUGBrvPfHqwhNHn-135" value="PK" style="shape=partialRectangle;connectable=0;fillColor=none;top=0;left=0;bottom=0;right=0;fontStyle=1;overflow=hidden;whiteSpace=wrap;html=1;rounded=1;" parent="FWlAzwUGBrvPfHqwhNHn-134" vertex="1">
                    <mxGeometry width="30" height="30" as="geometry">
                        <mxRectangle width="30" height="30" as="alternateBounds"/>
                    </mxGeometry>
                </mxCell>
                <mxCell id="FWlAzwUGBrvPfHqwhNHn-136" value="id&amp;nbsp; &amp;nbsp;INT&amp;nbsp; &amp;nbsp;AUTO" style="shape=partialRectangle;connectable=0;fillColor=none;top=0;left=0;bottom=0;right=0;align=left;spacingLeft=6;fontStyle=5;overflow=hidden;whiteSpace=wrap;html=1;rounded=1;" parent="FWlAzwUGBrvPfHqwhNHn-134" vertex="1">
                    <mxGeometry x="30" width="170" height="30" as="geometry">
                        <mxRectangle width="170" height="30" as="alternateBounds"/>
                    </mxGeometry>
                </mxCell>
                <mxCell id="FWlAzwUGBrvPfHqwhNHn-137" value="" style="shape=tableRow;horizontal=0;startSize=0;swimlaneHead=0;swimlaneBody=0;fillColor=none;collapsible=0;dropTarget=0;points=[[0,0.5],[1,0.5]];portConstraint=eastwest;top=0;left=0;right=0;bottom=0;rounded=1;" parent="FWlAzwUGBrvPfHqwhNHn-133" vertex="1">
                    <mxGeometry y="60" width="200" height="30" as="geometry"/>
                </mxCell>
                <mxCell id="FWlAzwUGBrvPfHqwhNHn-138" value="" style="shape=partialRectangle;connectable=0;fillColor=none;top=0;left=0;bottom=0;right=0;editable=1;overflow=hidden;whiteSpace=wrap;html=1;rounded=1;" parent="FWlAzwUGBrvPfHqwhNHn-137" vertex="1">
                    <mxGeometry width="30" height="30" as="geometry">
                        <mxRectangle width="30" height="30" as="alternateBounds"/>
                    </mxGeometry>
                </mxCell>
                <mxCell id="FWlAzwUGBrvPfHqwhNHn-139" value="name&amp;nbsp; &amp;nbsp;VARCHAR(50)" style="shape=partialRectangle;connectable=0;fillColor=none;top=0;left=0;bottom=0;right=0;align=left;spacingLeft=6;overflow=hidden;whiteSpace=wrap;html=1;rounded=1;" parent="FWlAzwUGBrvPfHqwhNHn-137" vertex="1">
                    <mxGeometry x="30" width="170" height="30" as="geometry">
                        <mxRectangle width="170" height="30" as="alternateBounds"/>
                    </mxGeometry>
                </mxCell>
                <mxCell id="FWlAzwUGBrvPfHqwhNHn-144" value="" style="edgeStyle=elbowEdgeStyle;fontSize=12;html=1;endArrow=ERoneToMany;rounded=0;" parent="1" edge="1">
                    <mxGeometry width="100" height="100" relative="1" as="geometry">
                        <mxPoint x="200" y="512" as="sourcePoint"/>
                        <mxPoint x="150" y="390" as="targetPoint"/>
                        <Array as="points">
                            <mxPoint x="150" y="442"/>
                        </Array>
                    </mxGeometry>
                </mxCell>
                <mxCell id="FWlAzwUGBrvPfHqwhNHn-145" value="" style="edgeStyle=elbowEdgeStyle;fontSize=12;html=1;endArrow=ERoneToMany;rounded=0;elbow=vertical;exitX=0.314;exitY=-0.038;exitDx=0;exitDy=0;exitPerimeter=0;" parent="1" source="FWlAzwUGBrvPfHqwhNHn-133" edge="1">
                    <mxGeometry width="100" height="100" relative="1" as="geometry">
                        <mxPoint x="360" y="320" as="sourcePoint"/>
                        <mxPoint x="232" y="340" as="targetPoint"/>
                        <Array as="points">
                            <mxPoint x="390" y="340"/>
                        </Array>
                    </mxGeometry>
                </mxCell>
                <mxCell id="FWlAzwUGBrvPfHqwhNHn-149" value="users_types" style="shape=table;startSize=30;container=1;collapsible=1;childLayout=tableLayout;fixedRows=1;rowLines=0;fontStyle=1;align=center;resizeLast=1;html=1;fillColor=#6d8764;strokeColor=#3A5431;fontColor=#ffffff;rounded=1;" parent="1" vertex="1">
                    <mxGeometry x="324" y="220" width="200" height="90" as="geometry"/>
                </mxCell>
                <mxCell id="FWlAzwUGBrvPfHqwhNHn-150" value="" style="shape=tableRow;horizontal=0;startSize=0;swimlaneHead=0;swimlaneBody=0;fillColor=none;collapsible=0;dropTarget=0;points=[[0,0.5],[1,0.5]];portConstraint=eastwest;top=0;left=0;right=0;bottom=1;rounded=1;" parent="FWlAzwUGBrvPfHqwhNHn-149" vertex="1">
                    <mxGeometry y="30" width="200" height="30" as="geometry"/>
                </mxCell>
                <mxCell id="FWlAzwUGBrvPfHqwhNHn-151" value="PK" style="shape=partialRectangle;connectable=0;fillColor=none;top=0;left=0;bottom=0;right=0;fontStyle=1;overflow=hidden;whiteSpace=wrap;html=1;rounded=1;" parent="FWlAzwUGBrvPfHqwhNHn-150" vertex="1">
                    <mxGeometry width="30" height="30" as="geometry">
                        <mxRectangle width="30" height="30" as="alternateBounds"/>
                    </mxGeometry>
                </mxCell>
                <mxCell id="FWlAzwUGBrvPfHqwhNHn-152" value="id&amp;nbsp; &amp;nbsp;INT&amp;nbsp; &amp;nbsp;AUTO" style="shape=partialRectangle;connectable=0;fillColor=none;top=0;left=0;bottom=0;right=0;align=left;spacingLeft=6;fontStyle=5;overflow=hidden;whiteSpace=wrap;html=1;rounded=1;" parent="FWlAzwUGBrvPfHqwhNHn-150" vertex="1">
                    <mxGeometry x="30" width="170" height="30" as="geometry">
                        <mxRectangle width="170" height="30" as="alternateBounds"/>
                    </mxGeometry>
                </mxCell>
                <mxCell id="FWlAzwUGBrvPfHqwhNHn-153" value="" style="shape=tableRow;horizontal=0;startSize=0;swimlaneHead=0;swimlaneBody=0;fillColor=none;collapsible=0;dropTarget=0;points=[[0,0.5],[1,0.5]];portConstraint=eastwest;top=0;left=0;right=0;bottom=0;rounded=1;" parent="FWlAzwUGBrvPfHqwhNHn-149" vertex="1">
                    <mxGeometry y="60" width="200" height="30" as="geometry"/>
                </mxCell>
                <mxCell id="FWlAzwUGBrvPfHqwhNHn-154" value="" style="shape=partialRectangle;connectable=0;fillColor=none;top=0;left=0;bottom=0;right=0;editable=1;overflow=hidden;whiteSpace=wrap;html=1;rounded=1;" parent="FWlAzwUGBrvPfHqwhNHn-153" vertex="1">
                    <mxGeometry width="30" height="30" as="geometry">
                        <mxRectangle width="30" height="30" as="alternateBounds"/>
                    </mxGeometry>
                </mxCell>
                <mxCell id="FWlAzwUGBrvPfHqwhNHn-155" value="name&amp;nbsp; &amp;nbsp;VARCHAR(50)" style="shape=partialRectangle;connectable=0;fillColor=none;top=0;left=0;bottom=0;right=0;align=left;spacingLeft=6;overflow=hidden;whiteSpace=wrap;html=1;rounded=1;" parent="FWlAzwUGBrvPfHqwhNHn-153" vertex="1">
                    <mxGeometry x="30" width="170" height="30" as="geometry">
                        <mxRectangle width="170" height="30" as="alternateBounds"/>
                    </mxGeometry>
                </mxCell>
                <mxCell id="FWlAzwUGBrvPfHqwhNHn-156" value="" style="edgeStyle=entityRelationEdgeStyle;fontSize=12;html=1;endArrow=ERmany;rounded=0;" parent="1" edge="1">
                    <mxGeometry width="100" height="100" relative="1" as="geometry">
                        <mxPoint x="524" y="270" as="sourcePoint"/>
                        <mxPoint x="580" y="270" as="targetPoint"/>
                    </mxGeometry>
                </mxCell>
                <mxCell id="FWlAzwUGBrvPfHqwhNHn-160" value="" style="edgeStyle=elbowEdgeStyle;fontSize=12;html=1;endArrow=ERoneToMany;rounded=0;elbow=vertical;exitX=0;exitY=0.5;exitDx=0;exitDy=0;entryX=1;entryY=0.5;entryDx=0;entryDy=0;" parent="1" source="FWlAzwUGBrvPfHqwhNHn-27" target="FWlAzwUGBrvPfHqwhNHn-55" edge="1">
                    <mxGeometry width="100" height="100" relative="1" as="geometry">
                        <mxPoint x="490" y="200" as="sourcePoint"/>
                        <mxPoint x="590" y="100" as="targetPoint"/>
                    </mxGeometry>
                </mxCell>
            </root>
        </mxGraphModel>
    </diagram>
</mxfile>